<mxfile host="app.diagrams.net" modified="2024-04-16T18:19:09.212Z" agent="Mozilla/5.0 (Windows NT 10.0; Win64; x64) AppleWebKit/537.36 (KHTML, like Gecko) Chrome/123.0.0.0 Safari/537.36" etag="5uQsbzuiHL_hF6M3RUoX" version="24.2.5" type="github">
  <diagram id="C5RBs43oDa-KdzZeNtuy" name="Page-1">
    <mxGraphModel dx="1434" dy="738" grid="1" gridSize="10" guides="0" tooltips="1" connect="1" arrows="1" fold="1" page="1" pageScale="1" pageWidth="1169" pageHeight="827" math="0" shadow="0">
      <root>
        <mxCell id="WIyWlLk6GJQsqaUBKTNV-0" />
        <mxCell id="WIyWlLk6GJQsqaUBKTNV-1" parent="WIyWlLk6GJQsqaUBKTNV-0" />
        <mxCell id="JV-ZP3S0ocJzQNTwofFj-44" style="edgeStyle=orthogonalEdgeStyle;rounded=0;orthogonalLoop=1;jettySize=auto;html=1;exitX=0.5;exitY=1;exitDx=0;exitDy=0;entryX=0.5;entryY=0;entryDx=0;entryDy=0;" edge="1" parent="WIyWlLk6GJQsqaUBKTNV-1" source="JV-ZP3S0ocJzQNTwofFj-0" target="JV-ZP3S0ocJzQNTwofFj-42">
          <mxGeometry relative="1" as="geometry" />
        </mxCell>
        <mxCell id="JV-ZP3S0ocJzQNTwofFj-0" value="오한발열 증상" style="rounded=1;whiteSpace=wrap;html=1;" vertex="1" parent="WIyWlLk6GJQsqaUBKTNV-1">
          <mxGeometry x="40" y="60" width="100" height="50" as="geometry" />
        </mxCell>
        <mxCell id="JV-ZP3S0ocJzQNTwofFj-1" value="外邪有餘" style="rhombus;whiteSpace=wrap;html=1;" vertex="1" parent="WIyWlLk6GJQsqaUBKTNV-1">
          <mxGeometry x="30" y="170" width="120" height="60" as="geometry" />
        </mxCell>
        <mxCell id="JV-ZP3S0ocJzQNTwofFj-4" value="" style="endArrow=classic;html=1;rounded=0;exitX=0.5;exitY=1;exitDx=0;exitDy=0;" edge="1" parent="WIyWlLk6GJQsqaUBKTNV-1" source="JV-ZP3S0ocJzQNTwofFj-1">
          <mxGeometry width="50" height="50" relative="1" as="geometry">
            <mxPoint x="270" y="270" as="sourcePoint" />
            <mxPoint x="90" y="270" as="targetPoint" />
          </mxGeometry>
        </mxCell>
        <mxCell id="JV-ZP3S0ocJzQNTwofFj-5" value="" style="endArrow=classic;html=1;rounded=0;exitX=0.5;exitY=1;exitDx=0;exitDy=0;entryX=0.5;entryY=0;entryDx=0;entryDy=0;" edge="1" parent="WIyWlLk6GJQsqaUBKTNV-1" source="JV-ZP3S0ocJzQNTwofFj-0" target="JV-ZP3S0ocJzQNTwofFj-1">
          <mxGeometry width="50" height="50" relative="1" as="geometry">
            <mxPoint x="270" y="270" as="sourcePoint" />
            <mxPoint x="320" y="220" as="targetPoint" />
          </mxGeometry>
        </mxCell>
        <mxCell id="JV-ZP3S0ocJzQNTwofFj-18" style="edgeStyle=orthogonalEdgeStyle;rounded=0;orthogonalLoop=1;jettySize=auto;html=1;exitX=0.5;exitY=1;exitDx=0;exitDy=0;entryX=0.5;entryY=0;entryDx=0;entryDy=0;" edge="1" parent="WIyWlLk6GJQsqaUBKTNV-1" source="JV-ZP3S0ocJzQNTwofFj-6" target="JV-ZP3S0ocJzQNTwofFj-15">
          <mxGeometry relative="1" as="geometry" />
        </mxCell>
        <mxCell id="JV-ZP3S0ocJzQNTwofFj-6" value="&lt;div&gt;&lt;font color=&quot;#ff0000&quot;&gt;實證&lt;/font&gt;&lt;/div&gt;傷寒 (外感)" style="rounded=1;whiteSpace=wrap;html=1;" vertex="1" parent="WIyWlLk6GJQsqaUBKTNV-1">
          <mxGeometry x="40" y="270" width="100" height="50" as="geometry" />
        </mxCell>
        <mxCell id="JV-ZP3S0ocJzQNTwofFj-19" style="edgeStyle=orthogonalEdgeStyle;rounded=0;orthogonalLoop=1;jettySize=auto;html=1;exitX=0.5;exitY=1;exitDx=0;exitDy=0;entryX=0.5;entryY=0;entryDx=0;entryDy=0;" edge="1" parent="WIyWlLk6GJQsqaUBKTNV-1" source="JV-ZP3S0ocJzQNTwofFj-10" target="JV-ZP3S0ocJzQNTwofFj-16">
          <mxGeometry relative="1" as="geometry" />
        </mxCell>
        <mxCell id="JV-ZP3S0ocJzQNTwofFj-10" value="&lt;div&gt;&lt;font color=&quot;#0000ff&quot;&gt;虛症&lt;/font&gt;&lt;/div&gt;勞倦 (內傷)" style="rounded=1;whiteSpace=wrap;html=1;" vertex="1" parent="WIyWlLk6GJQsqaUBKTNV-1">
          <mxGeometry x="200" y="270" width="100" height="50" as="geometry" />
        </mxCell>
        <mxCell id="JV-ZP3S0ocJzQNTwofFj-15" value="攻下 또는&lt;div&gt;發散&lt;/div&gt;" style="shape=parallelogram;perimeter=parallelogramPerimeter;whiteSpace=wrap;html=1;fixedSize=1;" vertex="1" parent="WIyWlLk6GJQsqaUBKTNV-1">
          <mxGeometry x="35" y="350" width="110" height="50" as="geometry" />
        </mxCell>
        <mxCell id="JV-ZP3S0ocJzQNTwofFj-16" value="溫補" style="shape=parallelogram;perimeter=parallelogramPerimeter;whiteSpace=wrap;html=1;fixedSize=1;" vertex="1" parent="WIyWlLk6GJQsqaUBKTNV-1">
          <mxGeometry x="195" y="350" width="110" height="50" as="geometry" />
        </mxCell>
        <mxCell id="JV-ZP3S0ocJzQNTwofFj-32" style="edgeStyle=orthogonalEdgeStyle;rounded=0;orthogonalLoop=1;jettySize=auto;html=1;exitX=1;exitY=0.5;exitDx=0;exitDy=0;entryX=0;entryY=0.5;entryDx=0;entryDy=0;" edge="1" parent="WIyWlLk6GJQsqaUBKTNV-1" source="JV-ZP3S0ocJzQNTwofFj-21" target="JV-ZP3S0ocJzQNTwofFj-31">
          <mxGeometry relative="1" as="geometry" />
        </mxCell>
        <mxCell id="JV-ZP3S0ocJzQNTwofFj-55" style="edgeStyle=orthogonalEdgeStyle;rounded=0;orthogonalLoop=1;jettySize=auto;html=1;exitX=1;exitY=0.5;exitDx=0;exitDy=0;entryX=0;entryY=0.5;entryDx=0;entryDy=0;" edge="1" parent="WIyWlLk6GJQsqaUBKTNV-1" source="JV-ZP3S0ocJzQNTwofFj-21" target="JV-ZP3S0ocJzQNTwofFj-46">
          <mxGeometry relative="1" as="geometry" />
        </mxCell>
        <mxCell id="JV-ZP3S0ocJzQNTwofFj-56" style="edgeStyle=orthogonalEdgeStyle;rounded=0;orthogonalLoop=1;jettySize=auto;html=1;exitX=1;exitY=0.5;exitDx=0;exitDy=0;entryX=0;entryY=0.5;entryDx=0;entryDy=0;" edge="1" parent="WIyWlLk6GJQsqaUBKTNV-1" source="JV-ZP3S0ocJzQNTwofFj-21" target="JV-ZP3S0ocJzQNTwofFj-51">
          <mxGeometry relative="1" as="geometry" />
        </mxCell>
        <mxCell id="JV-ZP3S0ocJzQNTwofFj-21" value="음식내상" style="shape=step;perimeter=stepPerimeter;whiteSpace=wrap;html=1;fixedSize=1;" vertex="1" parent="WIyWlLk6GJQsqaUBKTNV-1">
          <mxGeometry x="500" y="100" width="110" height="50" as="geometry" />
        </mxCell>
        <mxCell id="JV-ZP3S0ocJzQNTwofFj-60" style="edgeStyle=orthogonalEdgeStyle;rounded=0;orthogonalLoop=1;jettySize=auto;html=1;exitX=1;exitY=0.5;exitDx=0;exitDy=0;entryX=0;entryY=0.5;entryDx=0;entryDy=0;" edge="1" parent="WIyWlLk6GJQsqaUBKTNV-1" source="JV-ZP3S0ocJzQNTwofFj-27" target="JV-ZP3S0ocJzQNTwofFj-59">
          <mxGeometry relative="1" as="geometry" />
        </mxCell>
        <mxCell id="JV-ZP3S0ocJzQNTwofFj-67" style="edgeStyle=orthogonalEdgeStyle;rounded=0;orthogonalLoop=1;jettySize=auto;html=1;exitX=1;exitY=0.5;exitDx=0;exitDy=0;entryX=0;entryY=0.5;entryDx=0;entryDy=0;" edge="1" parent="WIyWlLk6GJQsqaUBKTNV-1" source="JV-ZP3S0ocJzQNTwofFj-27" target="JV-ZP3S0ocJzQNTwofFj-66">
          <mxGeometry relative="1" as="geometry" />
        </mxCell>
        <mxCell id="JV-ZP3S0ocJzQNTwofFj-27" value="노권내상" style="shape=step;perimeter=stepPerimeter;whiteSpace=wrap;html=1;fixedSize=1;" vertex="1" parent="WIyWlLk6GJQsqaUBKTNV-1">
          <mxGeometry x="500" y="450" width="110" height="50" as="geometry" />
        </mxCell>
        <mxCell id="JV-ZP3S0ocJzQNTwofFj-34" style="edgeStyle=orthogonalEdgeStyle;rounded=0;orthogonalLoop=1;jettySize=auto;html=1;exitX=1;exitY=0.5;exitDx=0;exitDy=0;entryX=0;entryY=0.5;entryDx=0;entryDy=0;" edge="1" parent="WIyWlLk6GJQsqaUBKTNV-1" source="JV-ZP3S0ocJzQNTwofFj-31" target="JV-ZP3S0ocJzQNTwofFj-33">
          <mxGeometry relative="1" as="geometry" />
        </mxCell>
        <mxCell id="JV-ZP3S0ocJzQNTwofFj-31" value="泰饑 (크게 굶음)" style="rhombus;whiteSpace=wrap;html=1;" vertex="1" parent="WIyWlLk6GJQsqaUBKTNV-1">
          <mxGeometry x="680" y="95" width="140" height="60" as="geometry" />
        </mxCell>
        <mxCell id="JV-ZP3S0ocJzQNTwofFj-41" style="edgeStyle=orthogonalEdgeStyle;rounded=0;orthogonalLoop=1;jettySize=auto;html=1;exitX=1;exitY=0.5;exitDx=0;exitDy=0;entryX=0;entryY=0.5;entryDx=0;entryDy=0;" edge="1" parent="WIyWlLk6GJQsqaUBKTNV-1" source="JV-ZP3S0ocJzQNTwofFj-33" target="JV-ZP3S0ocJzQNTwofFj-40">
          <mxGeometry relative="1" as="geometry" />
        </mxCell>
        <mxCell id="JV-ZP3S0ocJzQNTwofFj-33" value="&lt;div&gt;&lt;font color=&quot;#0000ff&quot;&gt;虛症&lt;/font&gt;&lt;/div&gt;위기가 상함&lt;div&gt;&lt;/div&gt;" style="rounded=1;whiteSpace=wrap;html=1;" vertex="1" parent="WIyWlLk6GJQsqaUBKTNV-1">
          <mxGeometry x="860" y="100" width="100" height="50" as="geometry" />
        </mxCell>
        <mxCell id="JV-ZP3S0ocJzQNTwofFj-37" style="edgeStyle=elbowEdgeStyle;rounded=0;orthogonalLoop=1;jettySize=auto;html=1;exitX=1;exitY=0.5;exitDx=0;exitDy=0;entryX=0;entryY=0.5;entryDx=0;entryDy=0;" edge="1" parent="WIyWlLk6GJQsqaUBKTNV-1" source="JV-ZP3S0ocJzQNTwofFj-36" target="JV-ZP3S0ocJzQNTwofFj-21">
          <mxGeometry relative="1" as="geometry" />
        </mxCell>
        <mxCell id="JV-ZP3S0ocJzQNTwofFj-39" style="edgeStyle=elbowEdgeStyle;rounded=0;orthogonalLoop=1;jettySize=auto;html=1;exitX=1;exitY=0.5;exitDx=0;exitDy=0;entryX=0;entryY=0.5;entryDx=0;entryDy=0;" edge="1" parent="WIyWlLk6GJQsqaUBKTNV-1" source="JV-ZP3S0ocJzQNTwofFj-36" target="JV-ZP3S0ocJzQNTwofFj-27">
          <mxGeometry relative="1" as="geometry" />
        </mxCell>
        <mxCell id="JV-ZP3S0ocJzQNTwofFj-36" value="&lt;b&gt;&lt;font style=&quot;font-size: 15px;&quot;&gt;내상&lt;/font&gt;&lt;/b&gt;&lt;div&gt;&lt;/div&gt;" style="rounded=1;whiteSpace=wrap;html=1;" vertex="1" parent="WIyWlLk6GJQsqaUBKTNV-1">
          <mxGeometry x="340" y="270" width="100" height="50" as="geometry" />
        </mxCell>
        <mxCell id="JV-ZP3S0ocJzQNTwofFj-40" value="調補&lt;div&gt;(조리하고 보충)&lt;/div&gt;" style="shape=parallelogram;perimeter=parallelogramPerimeter;whiteSpace=wrap;html=1;fixedSize=1;" vertex="1" parent="WIyWlLk6GJQsqaUBKTNV-1">
          <mxGeometry x="990" y="100" width="150" height="50" as="geometry" />
        </mxCell>
        <mxCell id="JV-ZP3S0ocJzQNTwofFj-43" style="edgeStyle=orthogonalEdgeStyle;rounded=0;orthogonalLoop=1;jettySize=auto;html=1;exitX=0.5;exitY=1;exitDx=0;exitDy=0;entryX=0.5;entryY=0;entryDx=0;entryDy=0;" edge="1" parent="WIyWlLk6GJQsqaUBKTNV-1" source="JV-ZP3S0ocJzQNTwofFj-42" target="JV-ZP3S0ocJzQNTwofFj-10">
          <mxGeometry relative="1" as="geometry" />
        </mxCell>
        <mxCell id="JV-ZP3S0ocJzQNTwofFj-42" value="內傷不足&lt;div&gt;&lt;font style=&quot;font-size: 7px;&quot;&gt;(내상으로 인해 부족해짐)&lt;/font&gt;&lt;/div&gt;" style="rhombus;whiteSpace=wrap;html=1;" vertex="1" parent="WIyWlLk6GJQsqaUBKTNV-1">
          <mxGeometry x="170" y="170" width="160" height="60" as="geometry" />
        </mxCell>
        <mxCell id="JV-ZP3S0ocJzQNTwofFj-45" style="edgeStyle=orthogonalEdgeStyle;rounded=0;orthogonalLoop=1;jettySize=auto;html=1;exitX=1;exitY=0.5;exitDx=0;exitDy=0;entryX=0;entryY=0.5;entryDx=0;entryDy=0;" edge="1" parent="WIyWlLk6GJQsqaUBKTNV-1" source="JV-ZP3S0ocJzQNTwofFj-46" target="JV-ZP3S0ocJzQNTwofFj-48">
          <mxGeometry relative="1" as="geometry" />
        </mxCell>
        <mxCell id="JV-ZP3S0ocJzQNTwofFj-46" value="泰飽 (크게 배부름)" style="rhombus;whiteSpace=wrap;html=1;" vertex="1" parent="WIyWlLk6GJQsqaUBKTNV-1">
          <mxGeometry x="680" y="190" width="140" height="60" as="geometry" />
        </mxCell>
        <mxCell id="JV-ZP3S0ocJzQNTwofFj-47" style="edgeStyle=orthogonalEdgeStyle;rounded=0;orthogonalLoop=1;jettySize=auto;html=1;exitX=1;exitY=0.5;exitDx=0;exitDy=0;entryX=0;entryY=0.5;entryDx=0;entryDy=0;" edge="1" parent="WIyWlLk6GJQsqaUBKTNV-1" source="JV-ZP3S0ocJzQNTwofFj-48" target="JV-ZP3S0ocJzQNTwofFj-49">
          <mxGeometry relative="1" as="geometry" />
        </mxCell>
        <mxCell id="JV-ZP3S0ocJzQNTwofFj-48" value="&lt;div&gt;&lt;font color=&quot;#ff0000&quot;&gt;實證&lt;/font&gt;&lt;/div&gt;비기가 상함&lt;div&gt;&lt;/div&gt;&lt;div&gt;&lt;/div&gt;" style="rounded=1;whiteSpace=wrap;html=1;" vertex="1" parent="WIyWlLk6GJQsqaUBKTNV-1">
          <mxGeometry x="860" y="195" width="100" height="50" as="geometry" />
        </mxCell>
        <mxCell id="JV-ZP3S0ocJzQNTwofFj-49" value="化滯消食&lt;div&gt;(체한 것을 소화시킴)&lt;/div&gt;" style="shape=parallelogram;perimeter=parallelogramPerimeter;whiteSpace=wrap;html=1;fixedSize=1;" vertex="1" parent="WIyWlLk6GJQsqaUBKTNV-1">
          <mxGeometry x="990" y="195" width="150" height="50" as="geometry" />
        </mxCell>
        <mxCell id="JV-ZP3S0ocJzQNTwofFj-50" style="edgeStyle=orthogonalEdgeStyle;rounded=0;orthogonalLoop=1;jettySize=auto;html=1;exitX=1;exitY=0.5;exitDx=0;exitDy=0;entryX=0;entryY=0.5;entryDx=0;entryDy=0;" edge="1" parent="WIyWlLk6GJQsqaUBKTNV-1" source="JV-ZP3S0ocJzQNTwofFj-51" target="JV-ZP3S0ocJzQNTwofFj-53">
          <mxGeometry relative="1" as="geometry">
            <mxPoint x="830" y="320" as="targetPoint" />
          </mxGeometry>
        </mxCell>
        <mxCell id="JV-ZP3S0ocJzQNTwofFj-51" value="時饑時飽&lt;div&gt;&lt;font style=&quot;font-size: 9px;&quot;&gt;(때로 주리고 때로 배부름)&lt;/font&gt;&lt;/div&gt;" style="rhombus;whiteSpace=wrap;html=1;" vertex="1" parent="WIyWlLk6GJQsqaUBKTNV-1">
          <mxGeometry x="680" y="290" width="140" height="60" as="geometry" />
        </mxCell>
        <mxCell id="JV-ZP3S0ocJzQNTwofFj-52" style="edgeStyle=orthogonalEdgeStyle;rounded=0;orthogonalLoop=1;jettySize=auto;html=1;exitX=1;exitY=0.5;exitDx=0;exitDy=0;entryX=0;entryY=0.5;entryDx=0;entryDy=0;" edge="1" parent="WIyWlLk6GJQsqaUBKTNV-1" source="JV-ZP3S0ocJzQNTwofFj-53" target="JV-ZP3S0ocJzQNTwofFj-54">
          <mxGeometry relative="1" as="geometry" />
        </mxCell>
        <mxCell id="JV-ZP3S0ocJzQNTwofFj-53" value="&lt;div&gt;&lt;font color=&quot;#0000ff&quot;&gt;虛症&lt;/font&gt;&lt;/div&gt;상함이 주림에 있음;&lt;div&gt;위,비기 모두 상함&lt;div&gt;&lt;/div&gt;&lt;/div&gt;" style="rounded=1;whiteSpace=wrap;html=1;" vertex="1" parent="WIyWlLk6GJQsqaUBKTNV-1">
          <mxGeometry x="850" y="280" width="120" height="80" as="geometry" />
        </mxCell>
        <mxCell id="JV-ZP3S0ocJzQNTwofFj-54" value="調補&lt;div&gt;(조리하고 보충)&lt;/div&gt;" style="shape=parallelogram;perimeter=parallelogramPerimeter;whiteSpace=wrap;html=1;fixedSize=1;" vertex="1" parent="WIyWlLk6GJQsqaUBKTNV-1">
          <mxGeometry x="990" y="295" width="150" height="50" as="geometry" />
        </mxCell>
        <mxCell id="JV-ZP3S0ocJzQNTwofFj-59" value="노발내상&amp;nbsp;&lt;span style=&quot;background-color: initial;&quot;&gt;(勞發)&lt;/span&gt;" style="rhombus;whiteSpace=wrap;html=1;" vertex="1" parent="WIyWlLk6GJQsqaUBKTNV-1">
          <mxGeometry x="680" y="445" width="140" height="60" as="geometry" />
        </mxCell>
        <mxCell id="JV-ZP3S0ocJzQNTwofFj-65" style="edgeStyle=orthogonalEdgeStyle;rounded=0;orthogonalLoop=1;jettySize=auto;html=1;exitX=1;exitY=0.5;exitDx=0;exitDy=0;" edge="1" parent="WIyWlLk6GJQsqaUBKTNV-1" source="JV-ZP3S0ocJzQNTwofFj-61" target="JV-ZP3S0ocJzQNTwofFj-64">
          <mxGeometry relative="1" as="geometry">
            <Array as="points">
              <mxPoint x="980" y="475" />
            </Array>
          </mxGeometry>
        </mxCell>
        <mxCell id="JV-ZP3S0ocJzQNTwofFj-61" value="&lt;div&gt;&lt;div&gt;&lt;font color=&quot;#0000ff&quot;&gt;虛症&lt;/font&gt;&lt;/div&gt;&lt;/div&gt;&lt;div&gt;困倦(과로)로 인해 발열, 눕기 좋아하고&lt;/div&gt;&lt;div&gt;말하기 게으름,&lt;/div&gt;&lt;div&gt;無邪,&amp;nbsp;&lt;span style=&quot;background-color: initial;&quot;&gt;脈緩大浮&lt;/span&gt;&lt;/div&gt;&lt;div&gt;&lt;div&gt;&lt;/div&gt;&lt;/div&gt;" style="rounded=1;whiteSpace=wrap;html=1;" vertex="1" parent="WIyWlLk6GJQsqaUBKTNV-1">
          <mxGeometry x="840" y="420" width="140" height="100" as="geometry" />
        </mxCell>
        <mxCell id="JV-ZP3S0ocJzQNTwofFj-64" value="溫補" style="shape=parallelogram;perimeter=parallelogramPerimeter;whiteSpace=wrap;html=1;fixedSize=1;" vertex="1" parent="WIyWlLk6GJQsqaUBKTNV-1">
          <mxGeometry x="1030" y="450" width="110" height="50" as="geometry" />
        </mxCell>
        <mxCell id="JV-ZP3S0ocJzQNTwofFj-66" value="노력감한" style="rhombus;whiteSpace=wrap;html=1;" vertex="1" parent="WIyWlLk6GJQsqaUBKTNV-1">
          <mxGeometry x="680" y="590" width="140" height="60" as="geometry" />
        </mxCell>
        <mxCell id="JV-ZP3S0ocJzQNTwofFj-69" style="edgeStyle=orthogonalEdgeStyle;rounded=0;orthogonalLoop=1;jettySize=auto;html=1;exitX=1;exitY=0.5;exitDx=0;exitDy=0;entryX=0;entryY=0.548;entryDx=0;entryDy=0;entryPerimeter=0;" edge="1" parent="WIyWlLk6GJQsqaUBKTNV-1" source="JV-ZP3S0ocJzQNTwofFj-59" target="JV-ZP3S0ocJzQNTwofFj-61">
          <mxGeometry relative="1" as="geometry" />
        </mxCell>
        <mxCell id="JV-ZP3S0ocJzQNTwofFj-70" style="edgeStyle=orthogonalEdgeStyle;rounded=0;orthogonalLoop=1;jettySize=auto;html=1;exitX=1;exitY=0.5;exitDx=0;exitDy=0;" edge="1" parent="WIyWlLk6GJQsqaUBKTNV-1" source="JV-ZP3S0ocJzQNTwofFj-71" target="JV-ZP3S0ocJzQNTwofFj-72">
          <mxGeometry relative="1" as="geometry">
            <Array as="points">
              <mxPoint x="980" y="625" />
            </Array>
          </mxGeometry>
        </mxCell>
        <mxCell id="JV-ZP3S0ocJzQNTwofFj-71" value="&lt;div&gt;&lt;div&gt;&lt;font color=&quot;#ff0000&quot;&gt;實證&lt;/font&gt;&lt;/div&gt;&lt;/div&gt;&lt;div&gt;피로가 쌓이고&lt;/div&gt;&lt;div&gt;주리고 배부름,&lt;/div&gt;&lt;div&gt;비와 신 상함, 感邪&lt;/div&gt;&lt;div&gt;발열, 두통, 오한,&lt;/div&gt;&lt;div&gt;脈緊&lt;/div&gt;&lt;div&gt;&lt;div&gt;&lt;/div&gt;&lt;/div&gt;" style="rounded=1;whiteSpace=wrap;html=1;" vertex="1" parent="WIyWlLk6GJQsqaUBKTNV-1">
          <mxGeometry x="840" y="560" width="140" height="120" as="geometry" />
        </mxCell>
        <mxCell id="JV-ZP3S0ocJzQNTwofFj-72" value="解散, 和解 (이동원)&lt;div&gt;補陰 (장경악)&lt;/div&gt;" style="shape=parallelogram;perimeter=parallelogramPerimeter;whiteSpace=wrap;html=1;fixedSize=1;" vertex="1" parent="WIyWlLk6GJQsqaUBKTNV-1">
          <mxGeometry x="1010" y="600" width="150" height="50" as="geometry" />
        </mxCell>
        <mxCell id="JV-ZP3S0ocJzQNTwofFj-73" style="edgeStyle=orthogonalEdgeStyle;rounded=0;orthogonalLoop=1;jettySize=auto;html=1;exitX=1;exitY=0.5;exitDx=0;exitDy=0;entryX=0;entryY=0.548;entryDx=0;entryDy=0;entryPerimeter=0;" edge="1" parent="WIyWlLk6GJQsqaUBKTNV-1" target="JV-ZP3S0ocJzQNTwofFj-71">
          <mxGeometry relative="1" as="geometry">
            <mxPoint x="820" y="625" as="sourcePoint" />
          </mxGeometry>
        </mxCell>
      </root>
    </mxGraphModel>
  </diagram>
</mxfile>
